G04 DipTrace 2.4.0.2*
%INlaunchcam.GTS*%
%MOIN*%
%ADD19R,0.0669X0.0669*%
%ADD20C,0.0669*%
%ADD35C,0.2*%
%ADD36C,0.1181*%
%ADD37C,0.3937*%
%ADD44R,0.0709X0.0787*%
%ADD46R,0.0236X0.0787*%
%ADD48R,0.0779X0.0779*%
%ADD49C,0.0779*%
%ADD51R,0.1358X0.0925*%
%ADD53R,0.0453X0.0925*%
%ADD55R,0.0472X0.0787*%
%ADD57R,0.0787X0.0472*%
%ADD59R,0.1181X0.0433*%
%ADD61R,0.0965X0.0433*%
%ADD63C,0.0748*%
%ADD65R,0.0748X0.0748*%
%ADD69R,0.0669X0.0591*%
%ADD71R,0.0591X0.0669*%
%FSLAX44Y44*%
G04*
G70*
G90*
G75*
G01*
%LNTopMask*%
%LPD*%
D71*
X16373Y25371D3*
X17121D3*
D69*
X10497Y21997D3*
Y22745D3*
X16497Y23747D3*
Y24495D3*
X13497Y22497D3*
Y23245D3*
X17497Y17497D3*
Y16749D3*
D19*
X9497Y10497D3*
D20*
X10875D3*
D65*
X11497Y29497D3*
D63*
X12497D3*
X13497D3*
X14497D3*
X15497D3*
X16497D3*
D65*
X13997Y14997D3*
D63*
X14997D3*
X15997D3*
X16997D3*
D69*
X11489Y22749D3*
Y22001D3*
D71*
X11312Y23831D3*
X10564D3*
D69*
X20497Y17497D3*
Y18245D3*
D65*
X7119Y21883D3*
D63*
X8890D3*
Y24442D3*
X7119D3*
D61*
X12497Y26997D3*
Y26505D3*
D59*
X12607Y25993D3*
D61*
X12497Y25501D3*
X14607D3*
Y25993D3*
Y26505D3*
Y26997D3*
D57*
X22497Y16497D3*
Y17087D3*
Y17678D3*
Y18268D3*
Y18859D3*
Y19449D3*
Y20040D3*
Y20631D3*
Y21221D3*
Y21812D3*
Y22402D3*
Y22993D3*
Y23583D3*
X28027Y16497D3*
Y17087D3*
Y17678D3*
Y18268D3*
Y18859D3*
Y19449D3*
Y20040D3*
Y20631D3*
Y21221D3*
Y21812D3*
Y22402D3*
Y22993D3*
Y23583D3*
D55*
X23195Y15808D3*
X23786D3*
X24376D3*
X24967D3*
X25557D3*
X26148D3*
X26738D3*
X27329D3*
D53*
X9997Y13497D3*
X10902D3*
X11808D3*
D51*
X10902Y15780D3*
D49*
X20127Y10789D3*
X19037D3*
X17947D3*
X16857D3*
X20677Y9669D3*
X19587D3*
X18497D3*
X17407D3*
D48*
X16317D3*
D35*
X13577Y10229D3*
X23417D3*
D53*
X7997Y17497D3*
X8902D3*
X9808D3*
D51*
X8902Y19780D3*
D19*
X7997Y14497D3*
D20*
X6619D3*
D46*
X14497Y18997D3*
X14753D3*
X15009D3*
X15264D3*
X15520D3*
X15776D3*
X16032D3*
X16288D3*
X16544D3*
X16800D3*
X17056D3*
X17312D3*
X17568D3*
X17823D3*
Y21831D3*
X17568D3*
X17312D3*
X17056D3*
X16800D3*
X16544D3*
X16288D3*
X16032D3*
X15776D3*
X15520D3*
X15264D3*
X15009D3*
X14753D3*
X14497D3*
D44*
X20548Y25048D3*
X19446D3*
D71*
X20371Y26371D3*
X19623D3*
D36*
X18497Y5898D3*
X5898Y18497D3*
X18497Y31095D3*
X31095Y18497D3*
D37*
X26997Y12497D3*
M02*
