G04 DipTrace 2.4.0.2*
%INlaunchcam.GTO*%
%MOIN*%
%ADD10C,0.0098*%
%ADD21C,0.0295*%
%ADD26C,0.0154*%
%ADD73C,0.0062*%
%FSLAX44Y44*%
G04*
G70*
G90*
G75*
G01*
%LNTopSilk*%
%LPD*%
X15959Y25115D2*
D10*
Y25626D1*
X10752Y21583D2*
X10241D1*
X16752Y23333D2*
X16241D1*
X13752Y22083D2*
X13241D1*
X17241Y17910D2*
X17752D1*
X11761Y10497D2*
G02X11761Y10497I-1575J0D01*
G01*
X8926Y10379D2*
Y10615D1*
X8808Y10497D2*
X9044D1*
X10997Y29997D2*
X16996D1*
Y28997D1*
X10997D1*
Y29997D1*
X13497Y15497D2*
X17497D1*
Y14497D1*
X13497D1*
Y15497D1*
X7296Y23162D2*
G02X7296Y23162I709J0D01*
G01*
X9186Y22257D2*
Y24068D1*
X8399Y24343D2*
X7611D1*
X6823Y24068D2*
Y22414D1*
X7611Y21981D2*
X8399D1*
X7414Y23162D2*
G02X7414Y23162I591J0D01*
G01*
X14812Y25028D2*
X12292D1*
X14812Y27469D2*
X12292D1*
D21*
X12026Y27479D3*
X22506Y24076D2*
D10*
Y26831D1*
X28018D1*
Y24076D1*
D26*
X9613Y13195D3*
X9603Y14087D2*
D10*
X12201D1*
X9603Y15190D2*
X12201D1*
Y14087D2*
Y15190D1*
X9603Y14087D2*
Y15190D1*
X24637Y12779D2*
Y7679D1*
Y12779D2*
X12357D1*
X24637Y7679D2*
X12357D1*
Y12779D2*
Y7679D1*
D26*
X7613Y17195D3*
X7603Y18087D2*
D10*
X10201D1*
X7603Y19190D2*
X10201D1*
Y18087D2*
Y19190D1*
X7603Y18087D2*
Y19190D1*
X5733Y14497D2*
G02X5733Y14497I1575J0D01*
G01*
X8568Y14615D2*
Y14379D1*
X8686Y14497D2*
X8449D1*
X14113Y19469D2*
X18207D1*
X14113Y21359D2*
X18207D1*
Y19469D2*
Y21359D1*
X14113Y19469D2*
Y20138D1*
Y20690D2*
Y21359D1*
Y20138D2*
G03X14113Y20690I37J276D01*
G01*
X20115Y24733D2*
X19879D1*
X20115Y25363D2*
X19879D1*
X20040D2*
Y24733D1*
X20115Y25363D2*
Y24733D1*
X16702Y26156D2*
D73*
X16683Y26194D1*
X16644Y26233D1*
X16606Y26252D1*
X16530D1*
X16491Y26233D1*
X16453Y26194D1*
X16434Y26156D1*
X16415Y26099D1*
Y26003D1*
X16434Y25946D1*
X16453Y25907D1*
X16491Y25869D1*
X16530Y25850D1*
X16606D1*
X16644Y25869D1*
X16683Y25907D1*
X16702Y25946D1*
X16825Y26175D2*
X16864Y26194D1*
X16921Y26251D1*
Y25850D1*
X9711Y22240D2*
X9673Y22221D1*
X9635Y22182D1*
X9616Y22144D1*
Y22068D1*
X9635Y22029D1*
X9673Y21991D1*
X9711Y21972D1*
X9769Y21953D1*
X9865D1*
X9922Y21972D1*
X9960Y21991D1*
X9998Y22029D1*
X10018Y22068D1*
Y22144D1*
X9998Y22182D1*
X9960Y22221D1*
X9922Y22240D1*
X9712Y22383D2*
X9693D1*
X9654Y22402D1*
X9635Y22421D1*
X9616Y22459D1*
Y22536D1*
X9635Y22574D1*
X9654Y22593D1*
X9693Y22612D1*
X9731D1*
X9769Y22593D1*
X9826Y22555D1*
X10018Y22363D1*
Y22631D1*
X15711Y23990D2*
X15673Y23971D1*
X15635Y23932D1*
X15616Y23894D1*
Y23818D1*
X15635Y23779D1*
X15673Y23741D1*
X15711Y23722D1*
X15769Y23703D1*
X15865D1*
X15922Y23722D1*
X15960Y23741D1*
X15998Y23779D1*
X16018Y23818D1*
Y23894D1*
X15998Y23932D1*
X15960Y23971D1*
X15922Y23990D1*
X15616Y24152D2*
Y24362D1*
X15769Y24247D1*
Y24305D1*
X15788Y24343D1*
X15807Y24362D1*
X15865Y24381D1*
X15903D1*
X15960Y24362D1*
X15999Y24324D1*
X16018Y24266D1*
Y24209D1*
X15999Y24152D1*
X15979Y24133D1*
X15941Y24113D1*
X12711Y22730D2*
X12673Y22711D1*
X12635Y22673D1*
X12616Y22635D1*
Y22558D1*
X12635Y22520D1*
X12673Y22482D1*
X12711Y22462D1*
X12769Y22443D1*
X12865D1*
X12922Y22462D1*
X12960Y22482D1*
X12998Y22520D1*
X13018Y22558D1*
Y22635D1*
X12998Y22673D1*
X12960Y22711D1*
X12922Y22730D1*
X13018Y23045D2*
X12616D1*
X12884Y22854D1*
Y23141D1*
X16711Y17149D2*
X16673Y17130D1*
X16635Y17092D1*
X16616Y17054D1*
Y16977D1*
X16635Y16939D1*
X16673Y16901D1*
X16711Y16881D1*
X16769Y16862D1*
X16865D1*
X16922Y16881D1*
X16960Y16901D1*
X16998Y16939D1*
X17018Y16977D1*
Y17054D1*
X16998Y17092D1*
X16960Y17130D1*
X16922Y17149D1*
X16616Y17502D2*
Y17311D1*
X16788Y17292D1*
X16769Y17311D1*
X16750Y17369D1*
Y17426D1*
X16769Y17483D1*
X16807Y17522D1*
X16865Y17541D1*
X16903D1*
X16960Y17522D1*
X16999Y17483D1*
X17018Y17426D1*
Y17369D1*
X16999Y17311D1*
X16979Y17292D1*
X16941Y17273D1*
X10143Y12562D2*
X10124Y12600D1*
X10086Y12638D1*
X10048Y12657D1*
X9971D1*
X9933Y12638D1*
X9895Y12600D1*
X9875Y12562D1*
X9856Y12504D1*
Y12408D1*
X9875Y12351D1*
X9895Y12313D1*
X9933Y12275D1*
X9971Y12255D1*
X10048D1*
X10086Y12275D1*
X10124Y12313D1*
X10143Y12351D1*
X10496Y12600D2*
X10477Y12638D1*
X10420Y12657D1*
X10382D1*
X10324Y12638D1*
X10286Y12580D1*
X10267Y12485D1*
Y12389D1*
X10286Y12313D1*
X10324Y12274D1*
X10382Y12255D1*
X10401D1*
X10458Y12274D1*
X10496Y12313D1*
X10515Y12370D1*
Y12389D1*
X10496Y12447D1*
X10458Y12485D1*
X10401Y12504D1*
X10382D1*
X10324Y12485D1*
X10286Y12447D1*
X10267Y12389D1*
X13983Y31132D2*
Y30826D1*
X13964Y30768D1*
X13944Y30749D1*
X13906Y30730D1*
X13868D1*
X13830Y30749D1*
X13811Y30768D1*
X13791Y30826D1*
Y30864D1*
X14106Y31055D2*
X14145Y31074D1*
X14202Y31131D1*
Y30730D1*
X15397Y16583D2*
Y16277D1*
X15378Y16219D1*
X15358Y16200D1*
X15320Y16181D1*
X15282D1*
X15244Y16200D1*
X15225Y16219D1*
X15205Y16277D1*
Y16315D1*
X15540Y16487D2*
Y16506D1*
X15559Y16544D1*
X15578Y16563D1*
X15616Y16582D1*
X15693D1*
X15731Y16563D1*
X15750Y16544D1*
X15769Y16506D1*
Y16468D1*
X15750Y16429D1*
X15712Y16372D1*
X15520Y16181D1*
X15788D1*
X10799Y22131D2*
Y22303D1*
X10780Y22360D1*
X10761Y22380D1*
X10723Y22399D1*
X10684D1*
X10646Y22380D1*
X10627Y22360D1*
X10608Y22303D1*
Y22131D1*
X11010D1*
X10799Y22265D2*
X11010Y22399D1*
X10685Y22522D2*
X10665Y22561D1*
X10608Y22618D1*
X11010D1*
X10608Y24521D2*
X10780D1*
X10837Y24540D1*
X10857Y24559D1*
X10876Y24597D1*
Y24636D1*
X10857Y24674D1*
X10837Y24693D1*
X10780Y24712D1*
X10608D1*
Y24311D1*
X10742Y24521D2*
X10876Y24311D1*
X11019Y24616D2*
Y24635D1*
X11038Y24674D1*
X11057Y24693D1*
X11095Y24712D1*
X11172D1*
X11210Y24693D1*
X11229Y24674D1*
X11248Y24635D1*
Y24597D1*
X11229Y24559D1*
X11191Y24502D1*
X10999Y24311D1*
X11267D1*
X19807Y17541D2*
Y17713D1*
X19788Y17771D1*
X19769Y17790D1*
X19731Y17809D1*
X19692D1*
X19654Y17790D1*
X19635Y17771D1*
X19616Y17713D1*
Y17541D1*
X20018D1*
X19807Y17675D2*
X20018Y17809D1*
X19616Y17971D2*
Y18181D1*
X19769Y18066D1*
Y18124D1*
X19788Y18162D1*
X19807Y18181D1*
X19865Y18200D1*
X19903D1*
X19960Y18181D1*
X19999Y18143D1*
X20018Y18085D1*
Y18028D1*
X19999Y17971D1*
X19979Y17952D1*
X19941Y17932D1*
X8029Y25305D2*
X7991Y25343D1*
X7933Y25362D1*
X7857D1*
X7799Y25343D1*
X7761Y25305D1*
Y25267D1*
X7780Y25228D1*
X7799Y25209D1*
X7837Y25190D1*
X7952Y25152D1*
X7991Y25133D1*
X8010Y25113D1*
X8029Y25075D1*
Y25018D1*
X7991Y24980D1*
X7933Y24960D1*
X7857D1*
X7799Y24980D1*
X7761Y25018D1*
X8152Y25285D2*
X8191Y25305D1*
X8248Y25362D1*
Y24960D1*
X13221Y28212D2*
Y27925D1*
X13240Y27868D1*
X13278Y27830D1*
X13336Y27811D1*
X13374D1*
X13431Y27830D1*
X13469Y27868D1*
X13488Y27925D1*
Y28212D1*
X13612Y28135D2*
X13650Y28155D1*
X13708Y28212D1*
Y27811D1*
X24932Y27417D2*
Y27130D1*
X24951Y27073D1*
X24990Y27035D1*
X25047Y27015D1*
X25085D1*
X25143Y27035D1*
X25181Y27073D1*
X25200Y27130D1*
Y27417D1*
X25343Y27321D2*
Y27340D1*
X25362Y27379D1*
X25381Y27398D1*
X25420Y27417D1*
X25496D1*
X25534Y27398D1*
X25553Y27379D1*
X25573Y27340D1*
Y27302D1*
X25553Y27264D1*
X25515Y27207D1*
X25324Y27015D1*
X25592D1*
X10530Y16789D2*
Y16502D1*
X10549Y16445D1*
X10587Y16407D1*
X10645Y16387D1*
X10683D1*
X10740Y16407D1*
X10779Y16445D1*
X10798Y16502D1*
Y16789D1*
X11113Y16387D2*
Y16789D1*
X10921Y16521D1*
X11208D1*
X18397Y13365D2*
Y13059D1*
X18378Y13001D1*
X18358Y12982D1*
X18320Y12963D1*
X18282D1*
X18244Y12982D1*
X18225Y13001D1*
X18205Y13059D1*
Y13097D1*
X18559Y13364D2*
X18769D1*
X18654Y13211D1*
X18712D1*
X18750Y13192D1*
X18769Y13173D1*
X18788Y13116D1*
Y13078D1*
X18769Y13020D1*
X18731Y12982D1*
X18673Y12963D1*
X18616D1*
X18559Y12982D1*
X18540Y13001D1*
X18520Y13039D1*
X8539Y20789D2*
Y20502D1*
X8558Y20445D1*
X8597Y20407D1*
X8654Y20387D1*
X8692D1*
X8750Y20407D1*
X8788Y20445D1*
X8807Y20502D1*
Y20789D1*
X9160D2*
X8969D1*
X8950Y20617D1*
X8969Y20636D1*
X9027Y20655D1*
X9084D1*
X9141Y20636D1*
X9180Y20598D1*
X9199Y20540D1*
Y20502D1*
X9180Y20445D1*
X9141Y20406D1*
X9084Y20387D1*
X9027D1*
X8969Y20406D1*
X8950Y20426D1*
X8931Y20464D1*
X7255Y16562D2*
X7236Y16600D1*
X7198Y16638D1*
X7160Y16657D1*
X7084D1*
X7045Y16638D1*
X7007Y16600D1*
X6988Y16562D1*
X6969Y16504D1*
Y16408D1*
X6988Y16351D1*
X7007Y16313D1*
X7045Y16275D1*
X7084Y16255D1*
X7160D1*
X7198Y16275D1*
X7236Y16313D1*
X7255Y16351D1*
X7456Y16255D2*
X7647Y16657D1*
X7379D1*
X16012Y22772D2*
X15974Y22753D1*
X15936Y22715D1*
X15917Y22676D1*
X15897Y22619D1*
Y22523D1*
X15917Y22466D1*
X15936Y22428D1*
X15974Y22389D1*
X16012Y22370D1*
X16089D1*
X16127Y22389D1*
X16165Y22428D1*
X16184Y22466D1*
X16204Y22523D1*
Y22619D1*
X16184Y22676D1*
X16165Y22715D1*
X16127Y22753D1*
X16089Y22772D1*
X16012D1*
X16070Y22447D2*
X16184Y22332D1*
X16327Y22695D2*
X16366Y22714D1*
X16423Y22771D1*
Y22370D1*
X19753Y25988D2*
Y25586D1*
X19887D1*
X19944Y25606D1*
X19983Y25644D1*
X20002Y25682D1*
X20021Y25739D1*
Y25835D1*
X20002Y25893D1*
X19983Y25931D1*
X19944Y25969D1*
X19887Y25988D1*
X19753D1*
X20144Y25911D2*
X20183Y25931D1*
X20240Y25988D1*
Y25586D1*
X19658Y27060D2*
X19830D1*
X19887Y27080D1*
X19906Y27099D1*
X19925Y27137D1*
Y27175D1*
X19906Y27213D1*
X19887Y27233D1*
X19830Y27252D1*
X19658D1*
Y26850D1*
X19791Y27060D2*
X19925Y26850D1*
X20240D2*
Y27251D1*
X20049Y26984D1*
X20336D1*
M02*
