M48
INCH
T01C0.0157
T02C0.0354
T03C0.0394
T04C0.0433
T05C0.046
T06C0.1181
T07C0.2
T08C0.3937
%
T01
X+015997Y+031497
X+014997Y+031497
X+013997Y+028497
X+013497Y+028497
X+012997Y+028497
X+011997Y+028497
X+013497Y+026997
X+013497Y+026505
X+013497Y+025997
X+012997Y+024997
X+012064Y+024304
X+012060Y+022001
X+014068Y+022461
X+014753Y+020441
X+015520Y+020001
X+017823Y+020913
X+018394Y+020001
X+019410Y+019528
X+018497Y+018087
X+018127Y+017497
X+017233Y+018087
X+021264Y+017497
X+021264Y+016497
X+017407Y+012752
X+010875Y+011774
X+010902Y+014255
X+017184Y+022809
X+018872Y+024997
X+017997Y+027997
X+017497Y+028497
X+015497Y+027997
T02
X+009497Y+010497
X+010875Y+010497
X+007997Y+014497
X+006619Y+014497
T03
X+007119Y+021883
X+008890Y+021883
X+008890Y+024442
X+007119Y+024442
T04
X+011497Y+029497
X+012497Y+029497
X+013497Y+029497
X+014497Y+029497
X+015497Y+029497
X+016497Y+029497
X+015997Y+014997
X+016997Y+014997
X+014997Y+014997
X+013997Y+014997
T05
X+020127Y+010789
X+019037Y+010789
X+017947Y+010789
X+016857Y+010789
X+016317Y+009669
X+017407Y+009669
X+018497Y+009669
X+019587Y+009669
X+020677Y+009669
T06
X+018497Y+005898
X+005898Y+018497
X+018497Y+031095
X+031095Y+018497
T07
X+013577Y+010229
X+023417Y+010229
T08
X+026997Y+012497
T00
M30
