G04 DipTrace 2.4.0.2*
%INlaunchcam.GBL*%
%MOIN*%
%ADD13C,0.0118*%
%ADD14C,0.025*%
%ADD17R,0.0591X0.0591*%
%ADD18C,0.0591*%
%ADD19R,0.0669X0.0669*%
%ADD20C,0.0669*%
%ADD29C,0.07*%
%ADD30R,0.07X0.07*%
%ADD33C,0.0315*%
%FSLAX44Y44*%
G04*
G70*
G90*
G75*
G01*
%LNBottom*%
%LPD*%
X20127Y10789D2*
D13*
X20677Y10239D1*
Y9669D1*
X16997Y14997D2*
Y13876D1*
X16857Y13736D1*
Y10789D1*
X10875Y11774D2*
Y10497D1*
X13497Y26505D2*
Y26997D1*
Y28497D1*
Y29497D1*
X21264Y16497D2*
Y17497D1*
X13497Y28497D2*
D3*
Y26997D2*
D3*
X18394Y20001D2*
X15520D1*
X9497Y10497D2*
Y12849D1*
X10902Y14255D1*
X12497Y29497D2*
Y24304D1*
X12064D1*
X14068Y22461D2*
Y21818D1*
X13997Y21747D1*
Y17497D1*
Y14997D1*
X16317Y12677D1*
Y9669D1*
X10902Y14255D2*
X11644Y14997D1*
X13997D1*
Y17497D2*
X18127D1*
X12064Y24304D2*
X13440D1*
X14068Y23676D1*
Y22461D1*
X7997Y14497D2*
Y10121D1*
X8233Y9885D1*
X10414D1*
X11571Y8727D1*
X17711D1*
X17947Y8964D1*
Y10789D1*
X17407Y9669D2*
Y12752D1*
X17184Y22809D2*
X18872Y24497D1*
Y24997D1*
X17823Y20913D2*
X14497Y24240D1*
Y29497D1*
X14753Y20441D2*
X18801D1*
X19037Y20204D1*
Y10789D1*
X19410Y19528D2*
Y19106D1*
X19587Y18929D1*
Y9669D1*
X18497Y18087D2*
Y9669D1*
X17233Y18087D2*
X18497D1*
X12060Y22001D2*
X11309Y22751D1*
Y29497D1*
X11497D1*
D33*
X15997Y31497D3*
X14997D3*
X17497Y28497D3*
X17997Y27997D3*
X15497D3*
X13497Y28497D3*
X11997D3*
X13497Y26997D3*
Y25997D3*
X12997Y24997D3*
X13997Y28497D3*
X12997D3*
X21264Y17497D3*
Y16497D3*
X10875Y11774D3*
X13497Y26505D3*
X15520Y20001D3*
X18394D3*
X10902Y14255D3*
X18127Y17497D3*
X14068Y22461D3*
X12064Y24304D3*
X17407Y12752D3*
X17823Y20913D3*
X14753Y20441D3*
X19410Y19528D3*
X17233Y18087D3*
X18497D3*
X12060Y22001D3*
X17184Y22809D3*
X18872Y24997D3*
X15857Y32462D2*
D14*
X21135D1*
X14739Y32213D2*
X22252D1*
X13974Y31965D2*
X18189D1*
X18802D2*
X23018D1*
X13267Y31716D2*
X17803D1*
X19193D2*
X23728D1*
X12708Y31467D2*
X17639D1*
X19357D2*
X24287D1*
X12150Y31219D2*
X17568D1*
X19427D2*
X24846D1*
X11696Y30970D2*
X17568D1*
X19427D2*
X25295D1*
X11267Y30721D2*
X17639D1*
X19357D2*
X25725D1*
X10837Y30473D2*
X17803D1*
X19189D2*
X26158D1*
X10482Y30224D2*
X18197D1*
X18798D2*
X26514D1*
X10138Y29975D2*
X10885D1*
X12864D2*
X13131D1*
X13864D2*
X14131D1*
X14864D2*
X15131D1*
X15864D2*
X16131D1*
X16864D2*
X26853D1*
X9794Y29726D2*
X10885D1*
X17064D2*
X27197D1*
X9474Y29478D2*
X10885D1*
X17110D2*
X27518D1*
X9200Y29229D2*
X10885D1*
X17044D2*
X27795D1*
X8923Y28980D2*
X10885D1*
X12833D2*
X13189D1*
X13802D2*
X14158D1*
X14833D2*
X15189D1*
X15802D2*
X16189D1*
X16802D2*
X28072D1*
X8646Y28732D2*
X10971D1*
X11646D2*
X12158D1*
X12833D2*
X14158D1*
X14833D2*
X28346D1*
X8388Y28483D2*
X10971D1*
X11646D2*
X12158D1*
X12833D2*
X14158D1*
X14833D2*
X28607D1*
X8161Y28234D2*
X10971D1*
X11646D2*
X12158D1*
X12833D2*
X14158D1*
X14833D2*
X28830D1*
X7939Y27986D2*
X10971D1*
X11646D2*
X12158D1*
X12833D2*
X14158D1*
X14833D2*
X29057D1*
X7716Y27737D2*
X10971D1*
X11646D2*
X12158D1*
X12833D2*
X14158D1*
X14833D2*
X29279D1*
X7489Y27488D2*
X10971D1*
X11646D2*
X12158D1*
X12833D2*
X14158D1*
X14833D2*
X29502D1*
X7306Y27240D2*
X10971D1*
X11646D2*
X12158D1*
X12833D2*
X14158D1*
X14833D2*
X29689D1*
X7122Y26991D2*
X10971D1*
X11646D2*
X12158D1*
X12833D2*
X14158D1*
X14833D2*
X29869D1*
X6943Y26742D2*
X10971D1*
X11646D2*
X12158D1*
X12833D2*
X14158D1*
X14833D2*
X30049D1*
X6763Y26494D2*
X10971D1*
X11646D2*
X12158D1*
X12833D2*
X14158D1*
X14833D2*
X30232D1*
X6583Y26245D2*
X10971D1*
X11646D2*
X12158D1*
X12833D2*
X14158D1*
X14833D2*
X30412D1*
X6439Y25996D2*
X10971D1*
X11646D2*
X12158D1*
X12833D2*
X14158D1*
X14833D2*
X30557D1*
X6294Y25747D2*
X10971D1*
X11646D2*
X12158D1*
X12833D2*
X14158D1*
X14833D2*
X30697D1*
X6150Y25499D2*
X10971D1*
X11646D2*
X12158D1*
X12833D2*
X14158D1*
X14833D2*
X30842D1*
X6009Y25250D2*
X10971D1*
X11646D2*
X12158D1*
X12833D2*
X14158D1*
X14833D2*
X18525D1*
X19220D2*
X30986D1*
X5864Y25001D2*
X6916D1*
X7321D2*
X8685D1*
X9095D2*
X10971D1*
X11646D2*
X12158D1*
X12833D2*
X14158D1*
X14833D2*
X18435D1*
X19306D2*
X31131D1*
X5747Y24753D2*
X6596D1*
X7642D2*
X8365D1*
X9415D2*
X10971D1*
X11646D2*
X12158D1*
X12833D2*
X14158D1*
X14833D2*
X18518D1*
X19228D2*
X31244D1*
X5638Y24504D2*
X6510D1*
X7728D2*
X8279D1*
X9501D2*
X10971D1*
X13704D2*
X14158D1*
X14833D2*
X18412D1*
X19208D2*
X31357D1*
X5525Y24255D2*
X6537D1*
X7700D2*
X8307D1*
X9474D2*
X10971D1*
X13954D2*
X14158D1*
X14946D2*
X18166D1*
X19095D2*
X31467D1*
X5415Y24007D2*
X6697D1*
X7540D2*
X8471D1*
X9310D2*
X10971D1*
X11646D2*
X11755D1*
X15196D2*
X17916D1*
X18849D2*
X31576D1*
X5306Y23758D2*
X10971D1*
X11646D2*
X13518D1*
X14392D2*
X14514D1*
X15446D2*
X17666D1*
X18599D2*
X31689D1*
X5204Y23509D2*
X10971D1*
X11646D2*
X13732D1*
X14403D2*
X14760D1*
X15693D2*
X17420D1*
X18349D2*
X31787D1*
X5122Y23261D2*
X10971D1*
X11646D2*
X13732D1*
X14403D2*
X15010D1*
X15943D2*
X17170D1*
X18103D2*
X31869D1*
X5044Y23012D2*
X10971D1*
X11646D2*
X13732D1*
X14403D2*
X15260D1*
X16193D2*
X16803D1*
X17853D2*
X31951D1*
X4962Y22763D2*
X10971D1*
X11763D2*
X13732D1*
X14403D2*
X15506D1*
X16439D2*
X16752D1*
X17618D2*
X32029D1*
X4880Y22515D2*
X11080D1*
X12013D2*
X13635D1*
X14501D2*
X15756D1*
X16689D2*
X16871D1*
X17493D2*
X32111D1*
X4802Y22266D2*
X6506D1*
X7732D2*
X8420D1*
X9360D2*
X11330D1*
X12400D2*
X13682D1*
X14454D2*
X16006D1*
X16939D2*
X32193D1*
X4739Y22017D2*
X6506D1*
X7732D2*
X8295D1*
X9485D2*
X11576D1*
X12493D2*
X13732D1*
X14403D2*
X16252D1*
X17185D2*
X32256D1*
X4685Y21768D2*
X6506D1*
X7732D2*
X8287D1*
X9493D2*
X11697D1*
X12423D2*
X13662D1*
X14400D2*
X16502D1*
X17435D2*
X32307D1*
X4634Y21520D2*
X6506D1*
X7732D2*
X8404D1*
X9376D2*
X13658D1*
X14333D2*
X16752D1*
X17685D2*
X32361D1*
X4579Y21271D2*
X13658D1*
X14333D2*
X16998D1*
X18048D2*
X32412D1*
X4528Y21022D2*
X13658D1*
X14333D2*
X17248D1*
X18243D2*
X32467D1*
X4474Y20774D2*
X13658D1*
X14333D2*
X14490D1*
X15017D2*
X17412D1*
X18235D2*
X32518D1*
X4443Y20525D2*
X13658D1*
X19181D2*
X32553D1*
X4415Y20276D2*
X13658D1*
X19364D2*
X32576D1*
X4392Y20028D2*
X13658D1*
X14333D2*
X15084D1*
X19372D2*
X32603D1*
X4364Y19779D2*
X13658D1*
X14333D2*
X15150D1*
X19759D2*
X32631D1*
X4337Y19530D2*
X13658D1*
X14333D2*
X18701D1*
X19845D2*
X32654D1*
X4314Y19282D2*
X5404D1*
X6392D2*
X13658D1*
X14333D2*
X18701D1*
X19763D2*
X30603D1*
X31587D2*
X32682D1*
X4308Y19033D2*
X5135D1*
X6661D2*
X13658D1*
X14333D2*
X18701D1*
X19907D2*
X30330D1*
X31860D2*
X32685D1*
X4308Y18784D2*
X5006D1*
X6790D2*
X13658D1*
X14333D2*
X18701D1*
X19923D2*
X30201D1*
X31985D2*
X32685D1*
X4308Y18536D2*
X4959D1*
X6837D2*
X13658D1*
X14333D2*
X18701D1*
X19923D2*
X30158D1*
X32032D2*
X32685D1*
X4308Y18287D2*
X4982D1*
X6814D2*
X13658D1*
X14333D2*
X16850D1*
X19923D2*
X30182D1*
X32009D2*
X32685D1*
X4308Y18038D2*
X5084D1*
X6712D2*
X13658D1*
X14333D2*
X16799D1*
X19923D2*
X30279D1*
X31911D2*
X32685D1*
X4308Y17789D2*
X5295D1*
X6501D2*
X13658D1*
X19923D2*
X30490D1*
X31700D2*
X32685D1*
X4329Y17541D2*
X13658D1*
X19923D2*
X32662D1*
X4357Y17292D2*
X13658D1*
X19923D2*
X32639D1*
X4384Y17043D2*
X13658D1*
X14333D2*
X18158D1*
X19923D2*
X32611D1*
X4407Y16795D2*
X13658D1*
X14333D2*
X18158D1*
X19923D2*
X32584D1*
X4435Y16546D2*
X13658D1*
X14333D2*
X18158D1*
X19923D2*
X32560D1*
X4462Y16297D2*
X13658D1*
X14333D2*
X18158D1*
X19923D2*
X32533D1*
X4509Y16049D2*
X13658D1*
X14333D2*
X18158D1*
X19923D2*
X32482D1*
X4564Y15800D2*
X13658D1*
X14333D2*
X18158D1*
X19923D2*
X32432D1*
X4614Y15551D2*
X13385D1*
X14610D2*
X14779D1*
X15216D2*
X15779D1*
X16216D2*
X16779D1*
X17216D2*
X18158D1*
X19923D2*
X32377D1*
X4669Y15303D2*
X11557D1*
X17525D2*
X18158D1*
X19923D2*
X32326D1*
X4724Y15054D2*
X11236D1*
X17607D2*
X18158D1*
X19923D2*
X32271D1*
X4775Y14805D2*
X6139D1*
X7099D2*
X7424D1*
X8571D2*
X10986D1*
X17575D2*
X18158D1*
X19923D2*
X32217D1*
X4857Y14557D2*
X6049D1*
X7189D2*
X7424D1*
X8571D2*
X10600D1*
X11669D2*
X13385D1*
X15411D2*
X15584D1*
X16411D2*
X16584D1*
X17411D2*
X18158D1*
X19923D2*
X25967D1*
X28025D2*
X32139D1*
X4939Y14308D2*
X6080D1*
X7157D2*
X7424D1*
X8571D2*
X10471D1*
X11423D2*
X14221D1*
X15153D2*
X18158D1*
X19923D2*
X25568D1*
X28427D2*
X32057D1*
X5017Y14059D2*
X6264D1*
X6974D2*
X7424D1*
X8571D2*
X10240D1*
X11286D2*
X14467D1*
X15400D2*
X18158D1*
X19923D2*
X25295D1*
X28696D2*
X31975D1*
X5099Y13810D2*
X7658D1*
X8333D2*
X9990D1*
X10923D2*
X14717D1*
X15650D2*
X18158D1*
X19923D2*
X25096D1*
X28900D2*
X31896D1*
X5181Y13562D2*
X7658D1*
X8333D2*
X9744D1*
X10677D2*
X14967D1*
X15900D2*
X18158D1*
X19923D2*
X24943D1*
X29052D2*
X31814D1*
X5271Y13313D2*
X7658D1*
X8333D2*
X9494D1*
X10427D2*
X15213D1*
X16146D2*
X18158D1*
X19923D2*
X24830D1*
X29161D2*
X31725D1*
X5380Y13064D2*
X7658D1*
X8333D2*
X9244D1*
X10177D2*
X15463D1*
X16396D2*
X17115D1*
X17696D2*
X18158D1*
X19923D2*
X24752D1*
X29243D2*
X31611D1*
X5493Y12816D2*
X7658D1*
X8333D2*
X9158D1*
X9931D2*
X15713D1*
X16622D2*
X16975D1*
X17837D2*
X18158D1*
X19923D2*
X24701D1*
X29290D2*
X31502D1*
X5603Y12567D2*
X7658D1*
X8333D2*
X9158D1*
X9833D2*
X15959D1*
X16653D2*
X17014D1*
X17798D2*
X18158D1*
X19923D2*
X24682D1*
X29314D2*
X31393D1*
X5712Y12318D2*
X7658D1*
X8333D2*
X9158D1*
X9833D2*
X15978D1*
X16653D2*
X17068D1*
X17743D2*
X18158D1*
X19923D2*
X24685D1*
X29306D2*
X31279D1*
X5825Y12070D2*
X7658D1*
X8333D2*
X9158D1*
X9833D2*
X15978D1*
X16653D2*
X17068D1*
X17743D2*
X18158D1*
X19923D2*
X24721D1*
X29275D2*
X31170D1*
X5962Y11821D2*
X7658D1*
X8333D2*
X9158D1*
X9833D2*
X15978D1*
X16653D2*
X17068D1*
X17743D2*
X18158D1*
X19923D2*
X24783D1*
X29212D2*
X31029D1*
X6107Y11572D2*
X7658D1*
X8333D2*
X9158D1*
X9833D2*
X15978D1*
X16653D2*
X17068D1*
X17743D2*
X18158D1*
X19923D2*
X24877D1*
X29118D2*
X30889D1*
X6251Y11324D2*
X7658D1*
X8333D2*
X9158D1*
X9833D2*
X12932D1*
X14220D2*
X15978D1*
X20431D2*
X22771D1*
X24060D2*
X25002D1*
X28989D2*
X30744D1*
X6396Y11075D2*
X7658D1*
X8333D2*
X9158D1*
X9833D2*
X12623D1*
X14532D2*
X15978D1*
X20681D2*
X22463D1*
X24372D2*
X25174D1*
X28818D2*
X30600D1*
X6536Y10826D2*
X7658D1*
X8333D2*
X8924D1*
X10071D2*
X10412D1*
X11337D2*
X12443D1*
X14708D2*
X15978D1*
X20755D2*
X22287D1*
X24548D2*
X25404D1*
X28591D2*
X30455D1*
X6704Y10578D2*
X7658D1*
X8333D2*
X8924D1*
X10071D2*
X10307D1*
X11443D2*
X12342D1*
X14810D2*
X15978D1*
X20716D2*
X22182D1*
X24650D2*
X25721D1*
X28275D2*
X30287D1*
X6888Y10329D2*
X7658D1*
X8333D2*
X8924D1*
X10071D2*
X10326D1*
X11423D2*
X12299D1*
X14857D2*
X15978D1*
X20540D2*
X22139D1*
X24696D2*
X26228D1*
X27763D2*
X30107D1*
X7068Y10080D2*
X7662D1*
X11255D2*
X12303D1*
X14849D2*
X15689D1*
X20052D2*
X20209D1*
X21142D2*
X22143D1*
X24689D2*
X29928D1*
X7247Y9831D2*
X7822D1*
X10935D2*
X12357D1*
X14794D2*
X15689D1*
X21282D2*
X22197D1*
X24634D2*
X29744D1*
X7427Y9583D2*
X8131D1*
X11181D2*
X12475D1*
X14681D2*
X15689D1*
X21298D2*
X22314D1*
X24521D2*
X29564D1*
X7646Y9334D2*
X10498D1*
X11431D2*
X12670D1*
X14485D2*
X15689D1*
X21204D2*
X22510D1*
X24325D2*
X29350D1*
X7868Y9085D2*
X10748D1*
X11681D2*
X13029D1*
X14126D2*
X15689D1*
X16946D2*
X17228D1*
X18673D2*
X19412D1*
X19763D2*
X20502D1*
X20853D2*
X22869D1*
X23966D2*
X29123D1*
X8091Y8837D2*
X10994D1*
X18255D2*
X28900D1*
X8318Y8588D2*
X11244D1*
X18036D2*
X28678D1*
X8560Y8339D2*
X28432D1*
X8837Y8091D2*
X28158D1*
X9110Y7842D2*
X27881D1*
X9388Y7593D2*
X27603D1*
X9689Y7345D2*
X27303D1*
X10032Y7096D2*
X26963D1*
X10372Y6847D2*
X26619D1*
X10716Y6598D2*
X17885D1*
X19110D2*
X26279D1*
X11134Y6350D2*
X17678D1*
X19318D2*
X25861D1*
X11564Y6101D2*
X17580D1*
X19411D2*
X25432D1*
X11993Y5852D2*
X17560D1*
X19435D2*
X24998D1*
X12532Y5604D2*
X17607D1*
X19388D2*
X24459D1*
X13091Y5355D2*
X17736D1*
X19255D2*
X23900D1*
X13735Y5106D2*
X18018D1*
X18978D2*
X23260D1*
X14501Y4858D2*
X22494D1*
X15493Y4609D2*
X21502D1*
X17036Y4360D2*
X19955D1*
X9073Y11045D2*
X9187D1*
X9185Y12849D1*
X9209Y12971D1*
X9276Y13070D1*
X10494Y14288D1*
X10500Y14339D1*
X10544Y14456D1*
X10621Y14554D1*
X10724Y14624D1*
X10843Y14661D1*
X10870D1*
X11424Y15217D1*
X11527Y15286D1*
X11644Y15309D1*
X13406D1*
X13409Y15584D1*
X13686D1*
X13685Y17500D1*
Y21747D1*
X13712Y21876D1*
X13747Y21934D1*
X13755Y22195D1*
X13690Y22301D1*
X13659Y22421D1*
X13666Y22546D1*
X13710Y22662D1*
X13755Y22721D1*
Y23543D1*
X13308Y23994D1*
X12326Y23992D1*
X12206Y23919D1*
X12084Y23894D1*
X11960Y23907D1*
X11845Y23956D1*
X11751Y24037D1*
X11686Y24143D1*
X11655Y24264D1*
X11662Y24388D1*
X11706Y24505D1*
X11782Y24603D1*
X11885Y24673D1*
X12004Y24710D1*
X12129Y24709D1*
X12184Y24691D1*
X12185Y28995D1*
X12084Y28959D1*
Y28909D1*
X11620D1*
X11621Y25372D1*
Y22883D1*
X12091Y22411D1*
X12243Y22368D1*
X12345Y22296D1*
X12420Y22197D1*
X12463Y22080D1*
X12470Y22001D1*
X12451Y21878D1*
X12397Y21766D1*
X12311Y21676D1*
X12202Y21615D1*
X12080Y21591D1*
X11956Y21603D1*
X11842Y21653D1*
X11747Y21734D1*
X11682Y21840D1*
X11651Y21965D1*
X11088Y22530D1*
X11020Y22634D1*
X10997Y22751D1*
Y28911D1*
X10909Y28909D1*
Y30084D1*
X12084D1*
Y29917D1*
X12236Y30024D1*
X12353Y30067D1*
X12477Y30084D1*
X12601Y30075D1*
X12721Y30040D1*
X12831Y29980D1*
X12925Y29899D1*
X12998Y29808D1*
X13075Y29907D1*
X13171Y29986D1*
X13282Y30044D1*
X13402Y30077D1*
X13527Y30084D1*
X13650Y30064D1*
X13766Y30019D1*
X13871Y29950D1*
X13958Y29861D1*
X13997Y29805D1*
X14042Y29869D1*
X14131Y29957D1*
X14236Y30024D1*
X14353Y30067D1*
X14477Y30084D1*
X14601Y30075D1*
X14721Y30040D1*
X14831Y29980D1*
X14925Y29899D1*
X14998Y29803D1*
X15042Y29869D1*
X15131Y29957D1*
X15236Y30024D1*
X15353Y30067D1*
X15477Y30084D1*
X15601Y30075D1*
X15721Y30040D1*
X15831Y29980D1*
X15925Y29899D1*
X15998Y29803D1*
X16042Y29869D1*
X16131Y29957D1*
X16236Y30024D1*
X16353Y30067D1*
X16477Y30084D1*
X16601Y30075D1*
X16721Y30040D1*
X16831Y29980D1*
X16925Y29899D1*
X17001Y29799D1*
X17053Y29686D1*
X17081Y29565D1*
X17084Y29497D1*
X17071Y29373D1*
X17032Y29254D1*
X16969Y29147D1*
X16884Y29055D1*
X16782Y28983D1*
X16667Y28934D1*
X16545Y28911D1*
X16420Y28914D1*
X16299Y28943D1*
X16187Y28997D1*
X16088Y29074D1*
X15999Y29187D1*
X15884Y29055D1*
X15782Y28983D1*
X15667Y28934D1*
X15545Y28911D1*
X15420Y28914D1*
X15299Y28943D1*
X15187Y28997D1*
X15088Y29074D1*
X14999Y29187D1*
X14884Y29055D1*
X14809Y28997D1*
Y24368D1*
X17858Y21320D1*
X17888Y21318D1*
X18007Y21280D1*
X18109Y21208D1*
X18184Y21109D1*
X18226Y20992D1*
X18234Y20913D1*
X18215Y20790D1*
X18196Y20751D1*
X18801Y20753D1*
X18922Y20728D1*
X19021Y20661D1*
X19257Y20425D1*
X19326Y20322D1*
X19349Y20204D1*
X19350Y19934D1*
X19475D1*
X19593Y19896D1*
X19695Y19824D1*
X19770Y19725D1*
X19812Y19608D1*
X19820Y19528D1*
X19801Y19405D1*
X19746Y19293D1*
X19722Y19268D1*
X19876Y19046D1*
X19899Y18929D1*
Y11347D1*
X20010Y11381D1*
X20135Y11392D1*
X20259Y11378D1*
X20377Y11338D1*
X20484Y11275D1*
X20577Y11191D1*
X20650Y11089D1*
X20700Y10975D1*
X20726Y10853D1*
X20728Y10739D1*
X20705Y10616D1*
X20657Y10501D1*
X20586Y10398D1*
X20496Y10312D1*
X20390Y10246D1*
X20273Y10204D1*
X20149Y10186D1*
X20025Y10195D1*
X19899Y10230D1*
X19964Y10139D1*
X20053Y10052D1*
X20132Y9922D1*
X20175Y10004D1*
X20255Y10100D1*
X20353Y10178D1*
X20464Y10233D1*
X20585Y10265D1*
X20710Y10271D1*
X20833Y10252D1*
X20949Y10207D1*
X21054Y10139D1*
X21143Y10052D1*
X21212Y9948D1*
X21258Y9831D1*
X21279Y9708D1*
X21275Y9594D1*
X21247Y9473D1*
X21194Y9360D1*
X21120Y9260D1*
X21026Y9177D1*
X20917Y9116D1*
X20798Y9078D1*
X20674Y9066D1*
X20550Y9079D1*
X20431Y9118D1*
X20323Y9180D1*
X20230Y9264D1*
X20156Y9364D1*
X20132Y9410D1*
X20077Y9318D1*
X19994Y9224D1*
X19894Y9150D1*
X19781Y9098D1*
X19659Y9070D1*
X19534Y9068D1*
X19412Y9092D1*
X19297Y9140D1*
X19194Y9211D1*
X19108Y9302D1*
X19042Y9412D1*
X18987Y9318D1*
X18904Y9224D1*
X18804Y9150D1*
X18691Y9098D1*
X18569Y9070D1*
X18444Y9068D1*
X18322Y9092D1*
X18261Y9118D1*
X18259Y8964D1*
X18234Y8842D1*
X18167Y8743D1*
X17931Y8507D1*
X17828Y8438D1*
X17711Y8415D1*
X11571D1*
X11450Y8440D1*
X11351Y8507D1*
X10282Y9576D1*
X8539Y9573D1*
X8233D1*
X8111Y9598D1*
X8012Y9664D1*
X7776Y9901D1*
X7707Y10004D1*
X7685Y10121D1*
Y13945D1*
X7448Y13948D1*
Y15045D1*
X8545D1*
Y13948D1*
X8307D1*
X8309Y11122D1*
Y10251D1*
X8483Y10197D1*
X8948Y10198D1*
Y11045D1*
X9073D1*
X9812D2*
X10045D1*
Y10197D1*
X10417Y10196D1*
X10371Y10280D1*
X10335Y10399D1*
X10327Y10524D1*
X10347Y10647D1*
X10395Y10762D1*
X10467Y10864D1*
X10561Y10946D1*
X10671Y11006D1*
X10791Y11039D1*
X10915Y11044D1*
X11038Y11020D1*
X11152Y10970D1*
X11252Y10895D1*
X11332Y10799D1*
X11389Y10688D1*
X11419Y10567D1*
X11421Y10447D1*
X11395Y10325D1*
X11343Y10211D1*
X11266Y10113D1*
X11170Y10034D1*
X11058Y9980D1*
X10936Y9952D1*
X10811D1*
X10784Y9956D1*
X11703Y9037D1*
X13169Y9040D1*
X12956Y9136D1*
X12752Y9280D1*
X12581Y9461D1*
X12449Y9673D1*
X12361Y9907D1*
X12322Y10153D1*
X12331Y10403D1*
X12390Y10645D1*
X12496Y10871D1*
X12644Y11072D1*
X12829Y11240D1*
X13043Y11368D1*
X13279Y11451D1*
X13526Y11486D1*
X13775Y11471D1*
X14016Y11407D1*
X14240Y11297D1*
X14438Y11145D1*
X14602Y10957D1*
X14726Y10740D1*
X14804Y10503D1*
X14834Y10255D1*
X14828Y10104D1*
X14779Y9860D1*
X14682Y9629D1*
X14542Y9423D1*
X14364Y9248D1*
X14155Y9112D1*
X13978Y9039D1*
X17583Y9040D1*
X17601Y9098D1*
X17479Y9070D1*
X17354Y9068D1*
X17232Y9092D1*
X17117Y9140D1*
X17014Y9211D1*
X16918Y9319D1*
X16920Y9066D1*
X15714D1*
Y10272D1*
X16007D1*
X16005Y12169D1*
Y12548D1*
X14143Y14409D1*
X13409D1*
Y14686D1*
X11774Y14685D1*
X11310Y14221D1*
X11294Y14132D1*
X11239Y14020D1*
X11153Y13930D1*
X11044Y13869D1*
X10934Y13847D1*
X9811Y12722D1*
X9809Y11048D1*
X12995Y29190D2*
X12969Y29147D1*
X12884Y29055D1*
X12809Y28997D1*
X12814Y24616D1*
X13440D1*
X13561Y24591D1*
X13660Y24525D1*
X14288Y23897D1*
X14357Y23793D1*
X14380Y23676D1*
Y22727D1*
X14428Y22658D1*
X14470Y22541D1*
X14478Y22461D1*
X14459Y22338D1*
X14404Y22226D1*
X14380Y22201D1*
Y21818D1*
X14352Y21689D1*
X14317Y21630D1*
X14309Y21372D1*
Y17805D1*
X14872Y17809D1*
X16930D1*
X16855Y17927D1*
X16824Y18047D1*
X16831Y18172D1*
X16875Y18288D1*
X16952Y18386D1*
X17054Y18457D1*
X17173Y18494D1*
X17298Y18493D1*
X17416Y18455D1*
X17496Y18398D1*
X18229Y18399D1*
X18318Y18457D1*
X18437Y18494D1*
X18562Y18493D1*
X18680Y18455D1*
X18728Y18421D1*
X18725Y19539D1*
Y19754D1*
X18645Y19676D1*
X18536Y19615D1*
X18414Y19591D1*
X18290Y19603D1*
X18176Y19653D1*
X18132Y19691D1*
X16144Y19688D1*
X15789D1*
X15662Y19615D1*
X15540Y19591D1*
X15416Y19603D1*
X15302Y19653D1*
X15208Y19734D1*
X15142Y19840D1*
X15112Y19961D1*
X15119Y20085D1*
X15134Y20125D1*
X15015Y20128D1*
X14895Y20055D1*
X14773Y20030D1*
X14649Y20043D1*
X14534Y20093D1*
X14440Y20174D1*
X14375Y20280D1*
X14344Y20401D1*
X14351Y20525D1*
X14395Y20642D1*
X14471Y20740D1*
X14574Y20810D1*
X14693Y20847D1*
X14817Y20846D1*
X14936Y20808D1*
X15015Y20752D1*
X17444Y20753D1*
X17415Y20877D1*
X14951Y23344D1*
X14276Y24019D1*
X14207Y24123D1*
X14185Y24240D1*
Y29001D1*
X14088Y29074D1*
X13999Y29187D1*
X13903Y29072D1*
X13804Y28996D1*
X13691Y28942D1*
X13570Y28914D1*
X13445Y28911D1*
X13323Y28935D1*
X13208Y28985D1*
X13106Y29057D1*
X13023Y29149D1*
X12997Y29188D1*
X14311Y15584D2*
X14584D1*
Y15417D1*
X14736Y15524D1*
X14853Y15567D1*
X14977Y15584D1*
X15101Y15575D1*
X15221Y15540D1*
X15331Y15480D1*
X15425Y15399D1*
X15498Y15303D1*
X15542Y15369D1*
X15631Y15457D1*
X15736Y15524D1*
X15853Y15567D1*
X15977Y15584D1*
X16101Y15575D1*
X16221Y15540D1*
X16331Y15480D1*
X16425Y15399D1*
X16498Y15308D1*
X16575Y15407D1*
X16671Y15486D1*
X16782Y15544D1*
X16902Y15577D1*
X17027Y15584D1*
X17150Y15564D1*
X17266Y15519D1*
X17371Y15450D1*
X17458Y15361D1*
X17524Y15256D1*
X17567Y15138D1*
X17584Y15015D1*
X17576Y14897D1*
X17542Y14777D1*
X17483Y14667D1*
X17403Y14572D1*
X17304Y14496D1*
X17191Y14442D1*
X17070Y14414D1*
X16945Y14411D1*
X16823Y14435D1*
X16708Y14485D1*
X16606Y14557D1*
X16523Y14649D1*
X16497Y14688D1*
X16384Y14555D1*
X16282Y14483D1*
X16167Y14434D1*
X16045Y14411D1*
X15920Y14414D1*
X15799Y14443D1*
X15687Y14497D1*
X15588Y14574D1*
X15499Y14687D1*
X15384Y14555D1*
X15282Y14483D1*
X15167Y14434D1*
X15025Y14411D1*
X16537Y12898D1*
X16606Y12794D1*
X16629Y12677D1*
Y11345D1*
X16716Y11375D1*
X16840Y11392D1*
X16964Y11382D1*
X17084Y11348D1*
X17095Y11343D1*
X17094Y12485D1*
X17029Y12591D1*
X16998Y12712D1*
X17005Y12836D1*
X17049Y12953D1*
X17125Y13051D1*
X17228Y13121D1*
X17347Y13158D1*
X17472Y13157D1*
X17590Y13119D1*
X17692Y13047D1*
X17767Y12948D1*
X17810Y12831D1*
X17817Y12752D1*
X17798Y12629D1*
X17743Y12517D1*
X17719Y12491D1*
Y11349D1*
X17855Y11385D1*
X17980Y11391D1*
X18103Y11372D1*
X18187Y11339D1*
X18185Y14419D1*
Y17087D1*
X18023Y17100D1*
X17908Y17149D1*
X17864Y17187D1*
X15877Y17185D1*
X14310D1*
X14309Y15587D1*
X6656Y22470D2*
X7707D1*
Y21295D1*
X6531D1*
Y22470D1*
X6656D1*
X9465Y21758D2*
X9426Y21640D1*
X9363Y21532D1*
X9278Y21441D1*
X9176Y21369D1*
X9061Y21320D1*
X8939Y21297D1*
X8814Y21300D1*
X8693Y21329D1*
X8580Y21383D1*
X8482Y21460D1*
X8402Y21556D1*
X8344Y21666D1*
X8311Y21786D1*
X8303Y21911D1*
X8323Y22034D1*
X8367Y22151D1*
X8436Y22255D1*
X8525Y22343D1*
X8630Y22409D1*
X8747Y22453D1*
X8871Y22470D1*
X8995Y22461D1*
X9115Y22426D1*
X9224Y22366D1*
X9319Y22285D1*
X9394Y22185D1*
X9447Y22072D1*
X9474Y21950D1*
X9478Y21883D1*
X9465Y21758D1*
Y24318D2*
X9426Y24199D1*
X9363Y24092D1*
X9278Y24000D1*
X9176Y23928D1*
X9061Y23879D1*
X8939Y23856D1*
X8814Y23859D1*
X8693Y23888D1*
X8580Y23942D1*
X8482Y24019D1*
X8402Y24115D1*
X8344Y24225D1*
X8311Y24346D1*
X8303Y24470D1*
X8323Y24593D1*
X8367Y24710D1*
X8436Y24814D1*
X8525Y24902D1*
X8630Y24969D1*
X8747Y25012D1*
X8871Y25029D1*
X8995Y25020D1*
X9115Y24985D1*
X9224Y24925D1*
X9319Y24844D1*
X9394Y24744D1*
X9447Y24631D1*
X9474Y24509D1*
X9478Y24442D1*
X9465Y24318D1*
X7706Y24417D2*
X7687Y24293D1*
X7643Y24177D1*
X7576Y24072D1*
X7487Y23984D1*
X7382Y23916D1*
X7265Y23872D1*
X7142Y23854D1*
X7018Y23863D1*
X6898Y23897D1*
X6788Y23956D1*
X6693Y24037D1*
X6617Y24136D1*
X6564Y24249D1*
X6535Y24370D1*
X6533Y24495D1*
X6558Y24617D1*
X6608Y24732D1*
X6680Y24833D1*
X6773Y24917D1*
X6881Y24979D1*
X7000Y25017D1*
X7124Y25029D1*
X7248Y25015D1*
X7366Y24975D1*
X7473Y24911D1*
X7564Y24825D1*
X7635Y24723D1*
X7683Y24607D1*
X7705Y24485D1*
X7706Y24417D1*
X24668Y10104D2*
X24619Y9860D1*
X24522Y9629D1*
X24382Y9423D1*
X24204Y9248D1*
X23994Y9112D1*
X23763Y9020D1*
X23517Y8975D1*
X23267Y8980D1*
X23024Y9034D1*
X22796Y9136D1*
X22592Y9280D1*
X22421Y9461D1*
X22289Y9673D1*
X22201Y9907D1*
X22161Y10153D1*
X22171Y10403D1*
X22230Y10645D1*
X22336Y10871D1*
X22484Y11072D1*
X22669Y11240D1*
X22883Y11368D1*
X23118Y11451D1*
X23366Y11486D1*
X23615Y11471D1*
X23856Y11407D1*
X24080Y11297D1*
X24278Y11145D1*
X24442Y10957D1*
X24566Y10740D1*
X24644Y10503D1*
X24674Y10255D1*
X24668Y10104D1*
X7167Y14472D2*
X7147Y14349D1*
X7100Y14233D1*
X7028Y14131D1*
X6934Y14048D1*
X6825Y13989D1*
X6705Y13955D1*
X6580Y13950D1*
X6458Y13973D1*
X6343Y14023D1*
X6243Y14097D1*
X6163Y14192D1*
X6106Y14303D1*
X6075Y14424D1*
X6073Y14549D1*
X6099Y14671D1*
X6152Y14784D1*
X6229Y14882D1*
X6326Y14960D1*
X6438Y15014D1*
X6560Y15042D1*
X6684Y15041D1*
X6806Y15012D1*
X6917Y14957D1*
X7014Y14877D1*
X7089Y14778D1*
X7141Y14665D1*
X7165Y14542D1*
X7167Y14472D1*
X19402Y5774D2*
X19376Y5651D1*
X19335Y5534D1*
X19277Y5423D1*
X19205Y5321D1*
X19120Y5230D1*
X19023Y5151D1*
X18916Y5086D1*
X18801Y5037D1*
X18681Y5003D1*
X18557Y4987D1*
X18432D1*
X18308Y5004D1*
X18188Y5038D1*
X18074Y5088D1*
X17967Y5154D1*
X17871Y5233D1*
X17786Y5324D1*
X17714Y5427D1*
X17657Y5538D1*
X17616Y5656D1*
X17591Y5778D1*
X17583Y5903D1*
X17592Y6027D1*
X17618Y6150D1*
X17661Y6267D1*
X17719Y6378D1*
X17791Y6479D1*
X17877Y6570D1*
X17975Y6648D1*
X18082Y6712D1*
X18197Y6761D1*
X18317Y6794D1*
X18441Y6810D1*
X18566Y6809D1*
X18689Y6791D1*
X18809Y6757D1*
X18924Y6706D1*
X19030Y6640D1*
X19126Y6561D1*
X19211Y6469D1*
X19282Y6366D1*
X19338Y6255D1*
X19379Y6137D1*
X19403Y6014D1*
X19410Y5898D1*
X19402Y5774D1*
X6803Y18372D2*
X6778Y18250D1*
X6736Y18132D1*
X6679Y18021D1*
X6606Y17919D1*
X6521Y17828D1*
X6424Y17749D1*
X6317Y17685D1*
X6203Y17635D1*
X6082Y17602D1*
X5959Y17585D1*
X5834D1*
X5710Y17603D1*
X5590Y17637D1*
X5475Y17687D1*
X5369Y17752D1*
X5272Y17831D1*
X5187Y17923D1*
X5116Y18025D1*
X5059Y18136D1*
X5017Y18254D1*
X4993Y18377D1*
X4985Y18501D1*
X4994Y18626D1*
X5020Y18748D1*
X5062Y18865D1*
X5120Y18976D1*
X5193Y19078D1*
X5279Y19168D1*
X5376Y19247D1*
X5483Y19311D1*
X5598Y19360D1*
X5719Y19393D1*
X5843Y19409D1*
X5967Y19408D1*
X6091Y19390D1*
X6211Y19355D1*
X6325Y19305D1*
X6431Y19239D1*
X6528Y19159D1*
X6612Y19067D1*
X6683Y18964D1*
X6740Y18853D1*
X6780Y18735D1*
X6805Y18612D1*
X6812Y18497D1*
X6803Y18372D1*
X19402Y30971D2*
X19376Y30848D1*
X19335Y30731D1*
X19277Y30620D1*
X19205Y30518D1*
X19120Y30427D1*
X19023Y30348D1*
X18916Y30283D1*
X18801Y30234D1*
X18681Y30200D1*
X18557Y30183D1*
X18432Y30184D1*
X18308Y30201D1*
X18188Y30235D1*
X18074Y30285D1*
X17967Y30350D1*
X17871Y30430D1*
X17786Y30521D1*
X17714Y30624D1*
X17657Y30735D1*
X17616Y30853D1*
X17591Y30975D1*
X17583Y31100D1*
X17592Y31224D1*
X17618Y31346D1*
X17661Y31464D1*
X17719Y31574D1*
X17791Y31676D1*
X17877Y31767D1*
X17975Y31845D1*
X18082Y31909D1*
X18197Y31958D1*
X18317Y31991D1*
X18441Y32007D1*
X18566Y32006D1*
X18689Y31988D1*
X18809Y31954D1*
X18924Y31903D1*
X19030Y31837D1*
X19126Y31758D1*
X19211Y31666D1*
X19282Y31563D1*
X19338Y31451D1*
X19379Y31333D1*
X19403Y31211D1*
X19410Y31095D1*
X19402Y30971D1*
X32000Y18372D2*
X31975Y18250D1*
X31933Y18132D1*
X31875Y18021D1*
X31803Y17919D1*
X31718Y17828D1*
X31621Y17749D1*
X31514Y17685D1*
X31399Y17635D1*
X31279Y17602D1*
X31155Y17585D1*
X31030D1*
X30907Y17603D1*
X30787Y17637D1*
X30672Y17687D1*
X30566Y17752D1*
X30469Y17831D1*
X30384Y17923D1*
X30313Y18025D1*
X30256Y18136D1*
X30214Y18254D1*
X30189Y18377D1*
X30181Y18501D1*
X30191Y18626D1*
X30217Y18748D1*
X30259Y18865D1*
X30317Y18976D1*
X30390Y19078D1*
X30476Y19168D1*
X30573Y19247D1*
X30680Y19311D1*
X30795Y19360D1*
X30916Y19393D1*
X31039Y19409D1*
X31164Y19408D1*
X31288Y19390D1*
X31408Y19355D1*
X31522Y19305D1*
X31628Y19239D1*
X31724Y19159D1*
X31809Y19067D1*
X31880Y18964D1*
X31937Y18853D1*
X31977Y18735D1*
X32002Y18612D1*
X32009Y18497D1*
X32000Y18372D1*
X29285Y12372D2*
X29258Y12123D1*
X29204Y11879D1*
X29123Y11643D1*
X29018Y11416D1*
X28888Y11203D1*
X28736Y11005D1*
X28563Y10824D1*
X28372Y10663D1*
X28164Y10525D1*
X27942Y10409D1*
X27709Y10319D1*
X27468Y10254D1*
X27221Y10216D1*
X26971Y10205D1*
X26722Y10222D1*
X26476Y10265D1*
X26236Y10335D1*
X26005Y10431D1*
X25786Y10551D1*
X25582Y10694D1*
X25394Y10859D1*
X25225Y11043D1*
X25077Y11245D1*
X24952Y11461D1*
X24852Y11690D1*
X24777Y11928D1*
X24728Y12173D1*
X24706Y12422D1*
X24712Y12672D1*
X24744Y12920D1*
X24804Y13163D1*
X24889Y13397D1*
X25000Y13621D1*
X25134Y13832D1*
X25291Y14027D1*
X25468Y14204D1*
X25662Y14360D1*
X25873Y14494D1*
X26097Y14605D1*
X26332Y14690D1*
X26575Y14749D1*
X26823Y14782D1*
X27072Y14787D1*
X27321Y14765D1*
X27566Y14716D1*
X27805Y14641D1*
X28033Y14540D1*
X28250Y14415D1*
X28451Y14268D1*
X28635Y14099D1*
X28800Y13911D1*
X28943Y13706D1*
X29063Y13487D1*
X29159Y13256D1*
X29229Y13016D1*
X29272Y12770D1*
X29288Y12497D1*
X29285Y12372D1*
X17590Y22775D2*
X17576Y22686D1*
X17521Y22574D1*
X17435Y22484D1*
X17326Y22424D1*
X17204Y22399D1*
X17080Y22412D1*
X16966Y22461D1*
X16872Y22543D1*
X16806Y22649D1*
X16776Y22769D1*
X16782Y22894D1*
X16826Y23010D1*
X16903Y23108D1*
X17006Y23179D1*
X17125Y23215D1*
X17152D1*
X18557Y24624D1*
X18559Y24730D1*
X18494Y24836D1*
X18463Y24957D1*
X18470Y25081D1*
X18514Y25198D1*
X18590Y25296D1*
X18693Y25366D1*
X18812Y25403D1*
X18937Y25402D1*
X19055Y25364D1*
X19157Y25292D1*
X19232Y25193D1*
X19275Y25076D1*
X19282Y24997D1*
X19263Y24874D1*
X19209Y24762D1*
X19184Y24737D1*
Y24497D1*
X19159Y24375D1*
X19092Y24276D1*
X17593Y22776D1*
X8430Y8434D2*
X9539Y7435D1*
X10744Y6560D1*
X12035Y5815D1*
X13396Y5209D1*
X14813Y4748D1*
X16270Y4439D1*
X17751Y4283D1*
X19241D1*
X20723Y4438D1*
X22180Y4748D1*
X23597Y5209D1*
X24958Y5814D1*
X26249Y6559D1*
X27454Y7435D1*
X28561Y8432D1*
X29558Y9539D1*
X30434Y10744D1*
X31179Y12035D1*
X31785Y13396D1*
X32245Y14813D1*
X32555Y16270D1*
X32711Y17751D1*
Y19241D1*
X32555Y20723D1*
X32245Y22180D1*
X31785Y23597D1*
X31179Y24958D1*
X30434Y26249D1*
X29558Y27454D1*
X28562Y28561D1*
X27454Y29558D1*
X26249Y30434D1*
X24959Y31179D1*
X23598Y31785D1*
X22181Y32245D1*
X20724Y32555D1*
X19242Y32711D1*
X17752D1*
X16270Y32555D1*
X14813Y32245D1*
X13396Y31785D1*
X12035Y31179D1*
X10745Y30434D1*
X9540Y29558D1*
X8432Y28562D1*
X7435Y27454D1*
X6560Y26249D1*
X5815Y24959D1*
X5209Y23598D1*
X4748Y22181D1*
X4439Y20724D1*
X4283Y19242D1*
Y17752D1*
X4438Y16270D1*
X4748Y14813D1*
X5209Y13396D1*
X5814Y12035D1*
X6559Y10745D1*
X7435Y9540D1*
X8432Y8432D1*
X10875Y11045D2*
D13*
Y9949D1*
X10327Y10497D2*
X11423D1*
X13497Y30084D2*
Y28909D1*
X16997Y15584D2*
Y14409D1*
Y14997D2*
X17584D1*
X7119Y25029D2*
Y23854D1*
X6532Y24442D2*
X7706D1*
X20127Y11392D2*
Y10186D1*
Y10789D2*
X20729D1*
X16857Y11392D2*
Y10789D1*
X20677Y10272D2*
Y9066D1*
Y9669D2*
X21279D1*
X6619Y15045D2*
Y13949D1*
X6071Y14497D2*
X7167D1*
D17*
X9497Y10497D3*
D18*
X10875D3*
D19*
X11497Y29497D3*
D20*
X12497D3*
X13497D3*
X14497D3*
X15497D3*
X16497D3*
D19*
X13997Y14997D3*
D20*
X14997D3*
X15997D3*
X16997D3*
D19*
X7119Y21883D3*
D20*
X8890D3*
Y24442D3*
X7119D3*
D29*
X20127Y10789D3*
X19037D3*
X17947D3*
X16857D3*
X20677Y9669D3*
X19587D3*
X18497D3*
X17407D3*
D30*
X16317D3*
D17*
X7997Y14497D3*
D18*
X6619D3*
M02*
